<svg xmlns="http://www.w3.org/2000/svg" width="250.31" height="32.204" viewBox="0 0 250.31 32.204">
  <g id="Group_162918" data-name="Group 162918" transform="translate(-1503.071 -6207.548)">
    <path id="Path_17855" data-name="Path 17855" d="M244.382,6a5.856,5.856,0,1,0,5.928,5.855A5.891,5.891,0,0,0,244.382,6ZM11.855,11.855A5.892,5.892,0,0,1,5.928,17.71,5.856,5.856,0,1,1,5.928,6a5.892,5.892,0,0,1,5.927,5.855Z" transform="translate(1503.071 6210.331)" fill="#e24d13" fill-rule="evenodd"/>
    <path id="Path_17856" data-name="Path 17856" d="M182.665,0h8.648l6,24.265h1.954L205.215,0h8.471l-8.838,32.2h-13.3L182.665,0ZM155.188,32.2h8.26V0h-8.26V32.2ZM135.893,7.4h-9.5V32.2h-8.262V7.4h-9.459V0h27.225V7.4ZM80.423,14.208c3.242,0,4.485-1.173,4.485-3.472s-1.243-3.428-4.485-3.428H74.56v6.9ZM81.49,0c7.5,0,11.857,3.879,11.857,10.6,0,6.811-4.352,10.779-11.857,10.779H74.56V32.2H66.3V0ZM31.079,17.274h7.063L35.61,7.94H33.657l-2.578,9.335ZM50.488,32.2H42.272L39.963,23.86H29.3L27.039,32.2H19L28.5,0H40.983l9.5,32.2Z" transform="translate(1511.883 6207.548)" fill="#13294b" fill-rule="evenodd"/>
  </g>
</svg>
