<svg xmlns="http://www.w3.org/2000/svg" width="39.072" height="58.517" viewBox="0 0 39.072 58.517">
  <path id="Subtraction_91" data-name="Subtraction 91" d="M-8001.631,58.517H-8026a7.172,7.172,0,0,1-2.8-.566,7.169,7.169,0,0,1-2.289-1.542,7.2,7.2,0,0,1-1.542-2.289,7.147,7.147,0,0,1-.564-2.8l.307-44.121a7.179,7.179,0,0,1,.567-2.8,7.218,7.218,0,0,1,1.541-2.288,7.161,7.161,0,0,1,2.288-1.542A7.138,7.138,0,0,1-8025.677,0h24.353a7.157,7.157,0,0,1,2.8.566,7.189,7.189,0,0,1,2.287,1.542,7.2,7.2,0,0,1,1.543,2.288,7.16,7.16,0,0,1,.567,2.8l-.309,44.126a7.163,7.163,0,0,1-.568,2.8,7.144,7.144,0,0,1-1.54,2.288,7.2,7.2,0,0,1-2.291,1.543,7.156,7.156,0,0,1-2.8.559Zm-12.28-11.973a3.324,3.324,0,0,0-3.323,3.322,3.324,3.324,0,0,0,3.323,3.322,3.326,3.326,0,0,0,3.323-3.322,3.272,3.272,0,0,0-.972-2.348,3.363,3.363,0,0,0-2.343-.974Zm-5.131-40.176a1.663,1.663,0,0,0-1.661,1.662,1.663,1.663,0,0,0,1.661,1.662h11.072a1.663,1.663,0,0,0,1.664-1.662,1.662,1.662,0,0,0-1.664-1.662Z" transform="translate(8033.194)" fill="#13294b"/>
</svg>
