<svg xmlns="http://www.w3.org/2000/svg" width="47.242" height="45.16" viewBox="0 0 47.242 45.16">
  <path id="Subtraction_18" data-name="Subtraction 18" d="M41.017,57.982H30.8V27.514H41.015v4.26l.409-.48a13.24,13.24,0,0,1,6.716-4.3,9.711,9.711,0,0,1,1.68-.147h.447a15.158,15.158,0,0,1,3.047.308c4.816,1.268,7.7,5.039,8.339,10.9.067.6.1,4.4.1,10.439v9.483H51.538l-.03-9.216-.029-9.211-.23-.771a4.559,4.559,0,0,0-4.532-3.9h-.24a5.332,5.332,0,0,0-4.854,3.142c-.6,1.224-.6,1.224-.6,11.077V57.97Zm-15.733,0H15.057V27.524H25.279V57.991Zm-4.9-34.529h-.154a7.834,7.834,0,0,1-1.561-.164,5.248,5.248,0,0,1-.259-10.2,7.537,7.537,0,0,1,1.914-.253h.286a5.3,5.3,0,0,1,5.294,5.315,5.084,5.084,0,0,1-1.462,3.685A5.831,5.831,0,0,1,20.389,23.453Z" transform="translate(-14.516 -12.831)" fill="#13294b"/>
</svg>
