<svg xmlns="http://www.w3.org/2000/svg" width="51.602" height="51.635" viewBox="0 0 51.602 51.635">
  <path id="Subtraction_115" data-name="Subtraction 115" d="M25.73,51.635A25.909,25.909,0,0,1,12.991,48.28l-1.506-.872L6.82,48.891c-2.489.791-4.755,1.517-4.9,1.568a27.48,27.48,0,0,1,1.3-4.51c.149-.446.285-.849.408-1.216,1.252-3.721,1.252-3.721.567-4.73l-.017-.024c-.064-.094-.133-.2-.207-.311A25.97,25.97,0,0,1,18.776.91,29.119,29.119,0,0,1,31,.433a25.872,25.872,0,0,1-5.272,51.2ZM16.9,11.114a3.006,3.006,0,0,0-1.249.306,15.99,15.99,0,0,0-4.314,4.65c-.821,2.962.809,7.424,4.472,12.242,4.6,6.044,12.251,12.163,17.985,12.163h.027c1.914-.005,4-1.491,5.214-2.959A4.621,4.621,0,0,0,40.368,34a27.31,27.31,0,0,0-5.331-5.972,2.885,2.885,0,0,0-1.437-.384,2.933,2.933,0,0,0-.945.157,2.883,2.883,0,0,0-1.733,1.643,2.894,2.894,0,0,1-2.629,1.686c-1.816,0-4.051-1.492-6.132-4.091-1.452-1.807-2.072-3.3-1.844-4.449a2.7,2.7,0,0,1,1.5-1.817c1.312-.721,1.98-1.433,2.1-2.239.156-1.028-.566-2.309-2.341-4.151C19.227,11.939,18.048,11.114,16.9,11.114Z" fill="#13294b"/>
</svg>
