<svg xmlns="http://www.w3.org/2000/svg" width="57.158" height="57.118" viewBox="0 0 57.158 57.118">
  <path id="path0" d="M52.809,39.788A15.68,15.68,0,0,0,41.262,62.214l.462.921-.2,1.237c-2.886,17.66,12.494,33,30.75,30.668l1.22-.156,1.1.5A15.828,15.828,0,0,0,87.9,95.094c7.484-3.75,10.9-12.728,7.613-19.985l-.427-.941.2-1.03c3.351-17.515-11.74-33.3-30.011-31.4l-1.462.152L62.632,41.3a16.751,16.751,0,0,0-9.823-1.516M71.37,49.817c5.134.614,9.157,3.024,10.673,6.395,1.435,3.19-.454,6.241-3.681,5.949-1.509-.137-2.141-.648-3.48-2.817C73.02,56.327,71.3,55.37,67.75,55.377c-5.006.009-8.091,3.093-5.619,5.617,1.085,1.108,2.549,1.648,7.946,2.93,5.787,1.375,8.393,2.328,10.386,3.8,5.364,3.963,4.941,12.129-.831,16.046-4.727,3.207-12.884,3.957-19.055,1.752-7.71-2.756-11.071-12.2-4.611-12.962,1.951-.229,3,.523,4.36,3.128,2.045,3.915,3.457,4.869,7.4,5,4.844.157,8-1.717,8.021-4.759.016-2.7-1.706-3.753-8.688-5.31-9.166-2.044-12.582-4.316-13.539-9C51.943,53.9,60.157,48.477,71.37,49.817" transform="translate(-39.608 -39.594)" fill="#13294b" fill-rule="evenodd"/>
</svg>
