<svg xmlns="http://www.w3.org/2000/svg" width="51.038" height="42.719" viewBox="0 0 51.038 42.719">
  <path id="Subtraction_32" data-name="Subtraction 32" d="M50.956,57.209h0c-.984,0-2.681-1.19-7.678-4.873-3.361-2.475-5.8-4.235-5.935-4.283h-.015a19.117,19.117,0,0,0-3.4,2.913c-3.321,3.174-3.4,3.237-4.216,3.468a1.483,1.483,0,0,1-.345.074h-.013a.107.107,0,0,1-.078-.034c-.059-.061-.048-.223,0-.571.034-.3.152-1.978.318-4.505l.032-.5c.156-2.441.324-4.761.381-5.286l.082-.952L41.134,32.69C50.392,24.331,52.2,22.646,52.083,22.122c-.023-.114-.141-.164-.261-.2a.638.638,0,0,0-.19-.03c-.647,0-2.285,1.007-14.853,8.923L23.313,39.289l-4.681-1.466c-3.2-1-5.505-1.714-6.175-1.923-1.668-.516-2.491-1.061-2.514-1.67-.029-.777,1.261-1.662,3.942-2.712,1.293-.5,10.9-4.222,23.37-9.039L39.27,21.7c15.072-5.833,18.68-7.209,20.023-7.209h.048a1.047,1.047,0,0,1,.83.423l.091.093a1.723,1.723,0,0,0,.257.215c.832.7.832.7-2.525,16.521l-.169.8v.017q-.217,1.023-.453,2.131l-.411,1.95c-3.974,18.789-4.113,19.353-5.016,20.108a1.487,1.487,0,0,1-.988.461Z" transform="translate(-9.943 -14.49)" fill="#13294b"/>
</svg>
