<svg xmlns="http://www.w3.org/2000/svg" width="52.529" height="37.433" viewBox="0 0 52.529 37.433">
  <path id="Subtraction_12" data-name="Subtraction 12" d="M61.307,53.256h-45.1a3.675,3.675,0,0,1-1.253-.249L31.07,37.474l6.518,6.078a1.714,1.714,0,0,0,2.356-.019l6.543-6.3L63.114,52.757a3.706,3.706,0,0,1-1.807.5ZM12.595,50.464h0a3.732,3.732,0,0,1-.16-.967V20.172L28.512,35.141,12.6,50.461Zm52.343-.649h0L48.929,34.861l16.03-15.445a.215.215,0,0,1,0,.093.3.3,0,0,0-.019.088V49.815Zm-26.2-9.877h0L13.833,16.707a3.746,3.746,0,0,1,2.369-.884H61.307a3.692,3.692,0,0,1,1.887.552L38.74,39.936Z" transform="translate(-12.435 -15.823)" fill="#13294b"/>
</svg>
