<svg xmlns="http://www.w3.org/2000/svg" width="66.21" height="66.221" viewBox="0 0 66.21 66.221">
  <path id="Subtração_8" data-name="Subtração 8" d="M33.11,66.221h0l-7.428-5.387-9.127.964L12.82,53.406,4.433,49.674,5.4,40.55,0,33.11l5.387-7.428-.964-9.127,8.392-3.735,3.731-8.387,9.124.964L33.11,0l7.428,5.387,9.127-.964L53.4,12.815l8.387,3.731-.964,9.124L66.21,33.1l-5.377,7.437.964,9.127L53.406,53.4l-3.731,8.387-9.124-.964L33.119,66.21ZM20.609,32.8a1.065,1.065,0,0,0-.756.313L16.81,36.131a1.07,1.07,0,0,0,0,1.515l9.1,9.108a1.072,1.072,0,0,0,1.515,0L48.634,25.546a1.072,1.072,0,0,0,0-1.513l-3.027-3.044a1.07,1.07,0,0,0-1.515,0L26.669,38.409l-5.3-5.3A1.063,1.063,0,0,0,20.6,32.8Z" fill="#fff" opacity="0.4"/>
</svg>
