<svg xmlns="http://www.w3.org/2000/svg" width="51.992" height="52" viewBox="0 0 51.992 52">
  <path id="Subtração_8" data-name="Subtração 8" d="M26,52h0l-5.833-4.23L13,48.527l-2.933-6.59-6.586-2.93.757-7.165L0,26l4.23-5.833L3.473,13l6.59-2.933,2.93-6.586,7.165.757L26,0l5.833,4.23L39,3.473l2.933,6.59,6.586,2.93-.757,7.165,4.23,5.835-4.222,5.84L48.527,39l-6.59,2.933-2.93,6.586-7.165-.757-5.835,4.23ZM16.183,25.757a.836.836,0,0,0-.594.246L13.2,28.372a.84.84,0,0,0,0,1.19l7.142,7.152a.842.842,0,0,0,1.19,0L38.19,20.06a.842.842,0,0,0,0-1.188l-2.377-2.39a.84.84,0,0,0-1.19,0L20.942,30.161,16.779,26a.835.835,0,0,0-.6-.24Z" fill="#13294b" opacity="0.4"/>
</svg>
