<svg id="Citi" xmlns="http://www.w3.org/2000/svg" width="114.717" height="73.969" viewBox="0 0 114.717 73.969">
  <g id="Group_162896" data-name="Group 162896" transform="translate(0 0)">
    <g id="Group_162892" data-name="Group 162892" transform="translate(0 26.626)">
      <g id="Group_162891" data-name="Group 162891" transform="translate(0 0)">
        <path id="Path_17846" data-name="Path 17846" d="M-55.274-52.176l-.211.2C-58.8-48.6-62.63-46.814-66.578-46.814-74.823-46.814-80.8-53-80.8-61.531s5.981-14.714,14.226-14.714c3.948,0,7.781,1.793,11.092,5.18l.211.2,5.3-6.413-.142-.171c-4.409-5.21-9.7-7.744-16.207-7.744a24.606,24.606,0,0,0-16.79,6.156c-4.68,4.291-7.141,10.341-7.141,17.505S-87.79-48.3-83.111-44.013A24.5,24.5,0,0,0-66.32-37.85c6.505,0,11.8-2.537,16.207-7.751l.142-.158-5.3-6.416" transform="translate(90.252 85.193)" fill="#004481"/>
      </g>
    </g>
    <path id="Path_17847" data-name="Path 17847" d="M3301.341-628.892h9.366V-674.62h-9.366v45.728" transform="translate(-3255.705 701.986)" fill="#004481"/>
    <g id="Group_162894" data-name="Group 162894" transform="translate(63.281 13.181)">
      <g id="Group_162893" data-name="Group 162893" transform="translate(0)">
        <path id="Path_17848" data-name="Path 17848" d="M-44.9-78.969a13.582,13.582,0,0,1-6.914,2.29c-3.029,0-4.4-1.6-4.4-5.161V-106.1h9.547v-8.608h-9.547v-14.23l-9.178,4.917v9.313h-7.922v8.608h7.922v25.81c0,7.029,4.165,11.841,10.387,11.966a14.7,14.7,0,0,0,8.308-2.1l.1-.063,2.251-8.819-.554.339" transform="translate(73.314 128.941)" fill="#004481"/>
      </g>
    </g>
    <path id="Path_17849" data-name="Path 17849" d="M3440.188-628.892h9.378V-674.62h-9.378v45.728" transform="translate(-3340.741 701.986)" fill="#004481"/>
    <g id="Group_162895" data-name="Group 162895" transform="translate(39.413 0)">
      <path id="Path_17850" data-name="Path 17850" d="M-118.323-30.579A46.067,46.067,0,0,0-155.549-49.93a46.018,46.018,0,0,0-37.209,19.351l-.442.623h10.776l.119-.129a37.117,37.117,0,0,1,26.756-11.574,37.166,37.166,0,0,1,26.766,11.574l.119.129h10.77l-.428-.623" transform="translate(193.199 49.93)" fill="#e71b24"/>
    </g>
  </g>
</svg>
