<svg xmlns="http://www.w3.org/2000/svg" width="43" height="43" viewBox="0 0 43 43">
  <path id="Exclusion_108" data-name="Exclusion 108" d="M21.5,43A21.506,21.506,0,0,1,13.131,1.689,21.506,21.506,0,0,1,29.868,41.311,21.367,21.367,0,0,1,21.5,43ZM16.165,12.434a2.063,2.063,0,0,0-.475.057c-.4.121-.487.194-1.59,1.3-1.378,1.377-1.475,1.556-1.479,2.718,0,2.5,1.987,6.008,5.191,9.167a23.7,23.7,0,0,0,4.622,3.6,9.137,9.137,0,0,0,4.309,1.449,3.184,3.184,0,0,0,1.388-.289,15.378,15.378,0,0,0,2.534-2.507,1.893,1.893,0,0,0,.027-1.661,30.469,30.469,0,0,0-3.03-3.139,1.752,1.752,0,0,0-1.048-.345,1.771,1.771,0,0,0-1.29.559,1.931,1.931,0,0,0-.354.624,1.7,1.7,0,0,1-2.191.966c-2.262-.758-4.88-3.882-4.518-5.392a1.772,1.772,0,0,1,.936-1.146,2.206,2.206,0,0,0,.836-.494,1.736,1.736,0,0,0,.274-2.051,39.839,39.839,0,0,0-2.936-3.019A2.042,2.042,0,0,0,16.165,12.434Z" fill="#fff" opacity="0.5"/>
</svg>
