<svg xmlns="http://www.w3.org/2000/svg" width="43" height="43" viewBox="0 0 43 43">
  <path id="Subtraction_108" data-name="Subtraction 108" d="M3548.5,19927a21.5,21.5,0,1,1,8.226-1.637A21.4,21.4,0,0,1,3548.5,19927Zm-3.483-20.369-7,6.742a1.452,1.452,0,0,0,.546.107h19.58a1.567,1.567,0,0,0,.786-.215l-7.219-6.738-2.842,2.732a.742.742,0,0,1-1.022.01l-2.83-2.639h0Zm-8.092-7.514v12.734a1.5,1.5,0,0,0,.07.422l6.909-6.658-6.979-6.5Zm22.807-.326-6.962,6.705,6.954,6.49v-13.121a.071.071,0,0,1,.008-.031v-.043Zm-21.173-1.564a1.632,1.632,0,0,0-1.03.385l10.818,10.086,10.615-10.23a1.584,1.584,0,0,0-.819-.24Z" transform="translate(-3526.998 -19884)" fill="#fff" opacity="0.5"/>
</svg>
