<svg xmlns="http://www.w3.org/2000/svg" width="43" height="43" viewBox="0 0 43 43">
  <path id="Subtraction_86" data-name="Subtraction 86" d="M11392.5,4142a21.5,21.5,0,1,1,15.2-6.3A21.362,21.362,0,0,1,11392.5,4142Zm.041-32.368a10.511,10.511,0,0,0-2.825,20.644l.553.149,1.1,1.472c.531.707,1.118,1.47,1.14,1.47s.563-.7,1.138-1.473l1.1-1.469.481-.126a10.509,10.509,0,0,0-2.687-20.667Zm-.035,18.1c-.111,0-.221,0-.323-.007a7.656,7.656,0,0,1-.573-15.253c.219-.011.445-.017.673-.017a13.092,13.092,0,0,1,1.733.117,7.656,7.656,0,0,1-1.51,15.16Zm-.014-13.969a6.34,6.34,0,1,0,4.817,2.217,6.356,6.356,0,0,0-4.817-2.217Z" transform="translate(-11370.999 -4099)" fill="#fff" opacity="0.5"/>
</svg>
