<svg xmlns="http://www.w3.org/2000/svg" width="53" height="53" viewBox="0 0 53 53">
  <path id="Exclusion_44" data-name="Exclusion 44" d="M26.5,53A26.507,26.507,0,0,1,16.185,2.083a26.507,26.507,0,0,1,20.63,48.835A26.335,26.335,0,0,1,26.5,53ZM19.771,22.225a.575.575,0,0,0-.574.574v4.674a.575.575,0,0,0,.574.574h3.707V39.838a.575.575,0,0,0,.574.575h4.841a.576.576,0,0,0,.575-.575V28.058h4.338a.575.575,0,0,0,.574-.575V22.8a.575.575,0,0,0-.574-.575H29.472V19.5c0-1.314.313-1.981,2.026-1.981H33.98a.576.576,0,0,0,.575-.575V12.589A.575.575,0,0,0,33.98,12H30.3c-.122-.007-.245-.01-.367-.01A6.472,6.472,0,0,0,23.478,19v3.226Z" fill="#fff" opacity="0.5"/>
</svg>
