<svg xmlns="http://www.w3.org/2000/svg" width="180.668" height="39.98" viewBox="0 0 180.668 39.98">
  <path id="path0" d="M139.838,35.317c-11.94,1.41-18.51,12.171-15.655,25.644,4.161,19.634,33.138,18.551,36.5-1.364,2.572-15.229-6.639-25.958-20.846-24.28M12.877,53.952c0,21.147-.086,20.653,3.609,20.653h.974V37.528l-.937-.937a3.038,3.038,0,0,0-2.291-.938H12.877v18.3m12.22,0c0,19.755-.037,19.271,1.555,20.094,2.813,1.455,2.645,2.407,2.648-15l0-15.562L38.786,57.8c9.9,14.956,10.573,15.822,12.692,16.43,2.889.828,2.641,2.544,2.641-18.324V37.21l-.836-.779a3.326,3.326,0,0,0-2.1-.779H49.919l0,15.371,0,15.37L40.273,51.883c-10.229-15.4-10.929-16.23-13.7-16.23H25.1v18.3m38.26-17.52-.836.779v17.52c0,20.273-.073,19.874,3.609,19.874H67.1V56.657h7.777c8.918,0,9.79-.258,9.79-2.892V52.456H67.1v-12.6H84.323l.938-.937a3.09,3.09,0,0,0,.937-2.1V35.653h-11c-10.544,0-11.037.033-11.838.779M92.32,54.079c.013,19.859-.04,19.335,2.049,20.129,2.73,1.038,2.522,2.545,2.522-18.248V37.314l-.884-.83a3.273,3.273,0,0,0-2.291-.83H92.308l.012,18.426m18.621-2.8c-.108,15.1-.138,15.666-.9,16.684a5.394,5.394,0,0,1-4.74,2.6c-2.109.031-2.184.129-1.343,1.754,2,3.86,8.473,1.8,10.849-3.445.74-1.634.779-2.455.787-16.641l.008-14.922-.883-.83a3.273,3.273,0,0,0-2.276-.83h-1.391l-.111,15.63m59.021-3.249,6.36,12.489v5.92c0,6.471.163,7.113,1.958,7.739,2.73.952,2.624,1.223,2.624-6.7v-7.12l6.321-12.356,6.32-12.356h-1.309c-3.723,0-4.648,1.086-9.443,11.074-1.965,4.1-3.735,7.666-3.932,7.934-.338.459-1.844-2.394-7.357-13.939-1.63-3.414-3.195-4.726-5.95-4.991l-1.952-.187,6.36,12.489m-22.484-7.528c7.243,2.329,10.563,14.589,6.305,23.278-5.439,11.1-21.723,8.4-24.391-4.047-2.92-13.618,6.01-23.115,18.086-19.231" transform="translate(-12.877 -35.144)" fill="#adb0c2" fill-rule="evenodd"/>
</svg>
