<svg xmlns="http://www.w3.org/2000/svg" width="116.541" height="57.913" viewBox="0 0 116.541 57.913">
  <g id="ironfx-forex-broker-logo" transform="translate(0 -0.669)">
    <path id="Path_17861" data-name="Path 17861" d="M0,.669v49.3l9.465,8.616H116.541V.669Z" fill="#adb0c2" fill-rule="evenodd"/>
    <path id="Path_17862" data-name="Path 17862" d="M17.076,44.619h4.4V22.9h-4.4Z" transform="translate(-0.952 -1.239)" fill="#fff" fill-rule="evenodd"/>
    <path id="Path_17863" data-name="Path 17863" d="M33.373,32.6a7.845,7.845,0,0,0-1.693-.179c-3.014,0-4.185,2.134-4.185,5v7.2H23.127V28.886h4.152v2.9a5.483,5.483,0,0,1,5.144-3.262,6.4,6.4,0,0,1,.95.091Z" transform="translate(-1.289 -1.552)" fill="#fff" fill-rule="evenodd"/>
    <path id="Path_17864" data-name="Path 17864" d="M38.651,36.75c0,3.229,1.415,5.091,3.849,5.091,2.4,0,3.811-1.888,3.811-5.123,0-3.143-1.443-5-3.873-5C40.1,31.714,38.651,33.608,38.651,36.75Zm12.038,0c0,5.062-3.234,8.352-8.189,8.352s-8.219-3.319-8.219-8.352c0-5.006,3.293-8.33,8.279-8.33C47.455,28.421,50.689,31.745,50.689,36.751Z" transform="translate(-1.91 -1.547)" fill="#fff" fill-rule="evenodd"/>
    <path id="Path_17865" data-name="Path 17865" d="M62.958,44.625V35.438c0-1.951-.37-3.418-2.71-3.418-2.616,0-3.446,1.865-3.446,4.152v8.453H52.463V28.882h4.154v2.2a6.306,6.306,0,0,1,5.271-2.623c3.348,0,5.5,1.98,5.5,5.64V44.625Z" transform="translate(-2.924 -1.548)" fill="#fff" fill-rule="evenodd"/>
    <path id="Path_17866" data-name="Path 17866" d="M85.266,26.575V22.555l-15.4-.005V44.273H74.7V34.714h6.487v1.665l2.03-1.84,2.023-1.833-2.023-1.838-2.03-1.843v1.664H74.7v1.559l-2.027-1.832-2.023-1.842,2.023-1.838L74.7,24.9v1.677Z" transform="translate(-3.894 -1.219)" fill="#fff" fill-rule="evenodd"/>
    <path id="Path_17867" data-name="Path 17867" d="M87.132,22.554h5.587l4.3,6.93,4.451-6.93h5.281L99.718,32.919l7.643,11.35h-5.742L96.83,36.76l-4.88,7.51h-5.4l7.647-11.378Z" transform="translate(-4.823 -1.22)" fill="#fff" fill-rule="evenodd"/>
    <path id="Path_17868" data-name="Path 17868" d="M19.3,55.541a2.513,2.513,0,0,1-1.484-.414L17.711,54a2.425,2.425,0,0,0,1.534.554c.441,0,.686-.179.686-.47s-.169-.435-.777-.647a1.646,1.646,0,0,1-1.306-1.508,1.516,1.516,0,0,1,1.7-1.48,2.2,2.2,0,0,1,1.2.291l-.093.991a2,2,0,0,0-1.017-.306c-.42,0-.619.182-.619.419s.168.376.749.564a1.718,1.718,0,0,1,1.361,1.559C21.128,54.917,20.509,55.541,19.3,55.541Z" transform="translate(-0.987 -2.774)" fill="#fff" fill-rule="evenodd"/>
    <path id="Path_17869" data-name="Path 17869" d="M27.19,51.49a1.506,1.506,0,1,0,1.436,1.5A1.452,1.452,0,0,0,27.19,51.49Zm0,4.052a2.546,2.546,0,1,1,2.642-2.552A2.552,2.552,0,0,1,27.19,55.542Z" transform="translate(-1.369 -2.775)" fill="#fff" fill-rule="evenodd"/>
    <path id="Path_17870" data-name="Path 17870" d="M33.646,55.435V50.578h1.191v3.845H36.8v1.012Z" transform="translate(-1.875 -2.781)" fill="#fff" fill-rule="evenodd"/>
    <g id="Group_163062" data-name="Group 163062" transform="translate(38.108 15.056)">
      <path id="Path_17871" data-name="Path 17871" d="M40.357,55.435H41.55V50.578H40.357Z" transform="translate(-40.357 -17.838)" fill="#fff" fill-rule="evenodd"/>
      <path id="Path_17872" data-name="Path 17872" d="M46.879,51.592h-.368v2.831h.368a1.423,1.423,0,1,0,0-2.831Zm.138,3.843H45.365V50.578h1.652a2.436,2.436,0,1,1,0,4.857Z" transform="translate(-40.636 -17.838)" fill="#fff" fill-rule="evenodd"/>
      <path id="Path_17873" data-name="Path 17873" d="M60.293,51.521v3.914H59.107v-3.92h-1.48v-.937H61.77v.943Z" transform="translate(-41.32 -17.838)" fill="#fff" fill-rule="evenodd"/>
      <path id="Path_17874" data-name="Path 17874" d="M66.962,51.505h-.508v1.089h.508a.549.549,0,1,0,0-1.089Zm1.233,3.93-1.319-1.912h-.423v1.912H65.309V50.578h1.829a1.483,1.483,0,0,1,1.582,1.47,1.341,1.341,0,0,1-.749,1.218l1.556,2.17Z" transform="translate(-41.748 -17.838)" fill="#fff" fill-rule="evenodd"/>
      <path id="Path_17875" data-name="Path 17875" d="M74.922,52.555a4.436,4.436,0,0,1-.155-.5h-.015a3.3,3.3,0,0,1-.153.5l-.354.974h1.031Zm1.029,2.878-.386-1.014H73.954l-.377,1.014H72.453l1.932-4.9H75.2l1.928,4.9Z" transform="translate(-42.146 -17.835)" fill="#fff" fill-rule="evenodd"/>
      <path id="Path_17876" data-name="Path 17876" d="M82.221,51.592h-.368v2.831h.368a1.424,1.424,0,1,0,0-2.831Zm.141,3.843H80.705V50.578h1.657a2.436,2.436,0,1,1,0,4.857Z" transform="translate(-42.606 -17.838)" fill="#fff" fill-rule="evenodd"/>
      <path id="Path_17877" data-name="Path 17877" d="M88.822,55.435h1.189V50.578H88.822Z" transform="translate(-43.058 -17.838)" fill="#fff" fill-rule="evenodd"/>
      <path id="Path_17878" data-name="Path 17878" d="M97.828,55.488l-1.9-2.072c-.31-.334-.657-.744-.916-1.066l-.016.008c.016.342.021.714.021,1.021v2.055H93.824V50.578h.961l1.662,1.811c.227.251.572.647.8.929l.017-.008c-.017-.29-.025-.6-.025-.906V50.578h1.192v4.911Z" transform="translate(-43.337 -17.838)" fill="#fff" fill-rule="evenodd"/>
      <path id="Path_17879" data-name="Path 17879" d="M104.92,55.542a2.549,2.549,0,1,1-.026-5.088,2.884,2.884,0,0,1,1.556.391l-.093,1.036a2.291,2.291,0,0,0-1.341-.4,1.532,1.532,0,0,0-1.628,1.554,1.491,1.491,0,0,0,1.589,1.506,1.278,1.278,0,0,0,.666-.146v-.683h-.891V52.8h1.983v2.24A2.881,2.881,0,0,1,104.92,55.542Z" transform="translate(-43.804 -17.831)" fill="#fff" fill-rule="evenodd"/>
      <path id="Path_17880" data-name="Path 17880" d="M108.184,15.905h8.677v8.6Z" transform="translate(-44.137 -15.905)" fill="#fff" fill-rule="evenodd"/>
      <path id="Path_17881" data-name="Path 17881" d="M113.143,45.417V43.345h.511l.53,1.655.512-1.655h.5v2.072h-.319V43.679l-.539,1.738h-.315l-.56-1.764v1.764Zm-1.265,0V43.653H111.2v-.308h1.708v.308h-.682v1.764Z" transform="translate(-44.306 -17.435)" fill="#fff" fill-rule="evenodd"/>
    </g>
  </g>
</svg>
