<svg id="idiom" xmlns="http://www.w3.org/2000/svg" width="51.401" height="51.403" viewBox="0 0 51.401 51.403">
  <g id="Grupo_4427" data-name="Grupo 4427" transform="translate(12.083 13.755)">
    <g id="Grupo_4426" data-name="Grupo 4426">
      <path id="Caminho_3317" data-name="Caminho 3317" d="M122.144,137H121.5l-1.2,6.024h3.054Z" transform="translate(-120.296 -137)" fill="#fff"/>
    </g>
  </g>
  <g id="Grupo_4429" data-name="Grupo 4429" transform="translate(38.289 25.802)">
    <g id="Grupo_4428" data-name="Grupo 4428" transform="translate(0 0)">
      <path id="Caminho_3318" data-name="Caminho 3318" d="M381.374,257a15.739,15.739,0,0,0,2.471,4.364,15.89,15.89,0,0,0,2.57-4.364Z" transform="translate(-381.374 -257)" fill="#fff"/>
    </g>
  </g>
  <g id="Grupo_4431" data-name="Grupo 4431" transform="translate(24.362 9.137)">
    <g id="Grupo_4430" data-name="Grupo 4430" transform="translate(0 0)">
      <path id="Caminho_3319" data-name="Caminho 3319" d="M265.185,91h-18.7l3.9,31.292a4.675,4.675,0,0,1-1.116,3.428l-6.6,7.546h22.522a4.523,4.523,0,0,0,4.518-4.518V95.617A4.61,4.61,0,0,0,265.185,91Zm0,16.666h-.409a19.107,19.107,0,0,1-3.628,6.6c1.106,1.012,2.289,1.84,3.475,2.768a1.507,1.507,0,0,1-1.878,2.351c-1.277-1.007-2.477-1.854-3.679-2.954-1.2,1.1-2.3,1.946-3.577,2.954a1.507,1.507,0,0,1-1.878-2.351c1.175-.93,2.259-1.76,3.361-2.768a19.01,19.01,0,0,1-3.528-6.6h-.409a1.507,1.507,0,0,1,0-3.011h4.518v-1.507a1.507,1.507,0,1,1,3.011,0v1.507h4.617a1.507,1.507,0,0,1,0,3.011Z" transform="translate(-242.663 -91)" fill="#fff"/>
    </g>
  </g>
  <g id="Grupo_4433" data-name="Grupo 4433">
    <g id="Grupo_4432" data-name="Grupo 4432">
      <path id="Caminho_3320" data-name="Caminho 3320" d="M24.515,3.954A4.523,4.523,0,0,0,20.034,0H4.518A4.523,4.523,0,0,0,0,4.518V37.851a4.523,4.523,0,0,0,4.518,4.518H28.272c.44-.5.818-.818.818-1.472C29.094,40.727,24.529,4.121,24.515,3.954ZM18.469,28.785A1.507,1.507,0,0,1,16.7,27.6l-.957-4.814H11.476l-.963,4.805a1.507,1.507,0,1,1-2.95-.582l3.009-15.059a1.507,1.507,0,0,1,1.476-1.21h3.111a1.507,1.507,0,0,1,1.476,1.21l3.011,15.059a1.507,1.507,0,0,1-1.177,1.777Z" fill="#fff"/>
    </g>
  </g>
  <g id="Grupo_4435" data-name="Grupo 4435" transform="translate(17.596 45.379)">
    <g id="Grupo_4434" data-name="Grupo 4434">
      <path id="Caminho_3321" data-name="Caminho 3321" d="M175.261,452l.258,2.067a4.554,4.554,0,0,0,2.6,3.5L183.18,452Z" transform="translate(-175.261 -452)" fill="#fff"/>
    </g>
  </g>
</svg>
