<svg xmlns="http://www.w3.org/2000/svg" width="109.286" height="39.264" viewBox="0 0 109.286 39.264">
  <path id="path0" d="M50.446,145.162c-14.006,4.582-11.792,19.379,3.165,21.147,8.964,1.06,11.739,2.564,11.012,5.968-.6,2.8-11.669,3.567-16.952,1.169l-2.884-1.309-1.7,2.5c-2.191,3.224-2.182,3.269.983,4.884,12.738,6.5,28.551,1.177,27.708-9.324-.48-5.98-4.532-8.951-14.131-10.36-8.231-1.208-10.336-2.533-8.746-5.5,1.94-3.626,13.24-3.406,15.335.3.605,1.07,6.35-1.614,6.35-2.967,0-4.415-13.347-8.724-20.14-6.5m77.857.395a13.4,13.4,0,0,0-5.945,3.83l-2.211,2.546,2.843,1.882,2.843,1.882,2.277-2c3.2-2.809,10.162-2.955,12.847-.27,2.565,2.565,1.245,3.987-8.251,8.886-10.8,5.574-12.539,7.838-12.548,16.376l0,3.565h29.2v-7.469H138.488c-14.053,0-14.064-.4-.216-7.414,7.562-3.831,8.393-4.44,9.676-7.091,5.08-10.494-6.563-19.221-19.646-14.724M77.376,163.581v18.673h6.79V170.031c0-6.722.229-12.217.509-12.211s2.475,2.756,4.878,6.111c5.663,7.906,5.97,7.906,11.632,0,2.4-3.355,4.6-6.105,4.878-6.111s.509,5.489.509,12.211v12.222h6.79V144.907l-3.565.018-3.565.018-5.329,7.452c-2.931,4.1-5.42,7.452-5.531,7.452s-2.6-3.357-5.535-7.461l-5.333-7.461-3.565-.008-3.565-.008v18.673" transform="translate(-40.567 -143.713)" fill="#adb0c2" stroke="rgba(0,0,0,0)" stroke-width="1" fill-rule="evenodd"/>
</svg>
