<svg xmlns="http://www.w3.org/2000/svg" width="73.04" height="73.051" viewBox="0 0 73.04 73.051">
  <path id="Subtração_8" data-name="Subtração 8" d="M36.526,73.051h0l-8.194-5.942L18.263,68.172l-4.12-9.258L4.89,54.8,5.954,44.733,0,36.526l5.942-8.194L4.879,18.263l9.258-4.12L18.253,4.89,28.319,5.954,36.526,0,44.72,5.942,54.788,4.879l4.12,9.258,9.252,4.116L67.1,28.319l5.942,8.2-5.931,8.2,1.063,10.068-9.258,4.12L54.8,68.161,44.733,67.1l-8.2,5.942ZM22.734,36.184a1.174,1.174,0,0,0-.834.346l-3.356,3.328a1.18,1.18,0,0,0,0,1.672L28.577,51.577a1.183,1.183,0,0,0,1.672,0l23.4-23.4a1.183,1.183,0,0,0,0-1.669l-3.339-3.358a1.18,1.18,0,0,0-1.672,0L29.42,42.371l-5.848-5.845a1.173,1.173,0,0,0-.843-.337Z" fill="#fff" opacity="0.3"/>
</svg>
