<svg xmlns="http://www.w3.org/2000/svg" width="73.09" height="73.051" viewBox="0 0 73.09 73.051">
  <path id="Subtraction_114" data-name="Subtraction 114" d="M-772.442,8203.052h-.031a36.408,36.408,0,0,1-20.3-6.159,36.409,36.409,0,0,1-13.453-16.4,36.405,36.405,0,0,1-2.064-21.126,36.4,36.4,0,0,1,10.033-18.707,36.319,36.319,0,0,1,11.959-7.937A36.388,36.388,0,0,1-772.465,8130a36.311,36.311,0,0,1,14.07,2.823,37.728,37.728,0,0,1,11.78,7.875,36.409,36.409,0,0,1,10,18.7,36.406,36.406,0,0,1-2.078,21.1,36.408,36.408,0,0,1-13.453,16.393A36.414,36.414,0,0,1-772.442,8203.052Zm2.468-46.3c-.067.034-4.8,4.752-8.832,8.783-4.495,4.5-8.762,8.795-8.78,8.844-.006.015-.035.164-.086.433l-.068.352-.094.48-.019.1,0,.009c-.14.717-.332,1.7-.55,2.777-.945,4.7-.941,4.995.08,5.2h.023c.5,0,7.6-1.343,8.346-1.579.2-.062,3-2.792,9.062-8.85l8.754-8.756-3.891-3.9c-2.241-2.241-3.9-3.878-3.942-3.893Zm9.192-6.895a5.448,5.448,0,0,0-1.709.276c-1.139.39-1.629.754-3.49,2.6l-1.793,1.774,3.922,3.92,3.918,3.916h.008l1.816-1.845c2.367-2.4,2.783-3.167,2.783-5.114a5.5,5.5,0,0,0-1.577-3.9A5.5,5.5,0,0,0-760.782,8149.859Z" transform="translate(809.003 -8130)" fill="#fff" opacity="0.3"/>
</svg>
