<svg xmlns="http://www.w3.org/2000/svg" width="73.37" height="73.367" viewBox="0 0 73.37 73.367">
  <g id="chart" transform="translate(0)" opacity="0.3">
    <path id="Caminho_14481" data-name="Caminho 14481" d="M44.963,47.938a13.979,13.979,0,1,1-10.4-25.1V0A36.715,36.715,0,1,0,61.12,64.084Z" transform="translate(0 0)" fill="#fff"/>
    <path id="Caminho_14482" data-name="Caminho 14482" d="M337.518,270.775a13.908,13.908,0,0,1-2.529,6.1l16.147,16.147a36.575,36.575,0,0,0,9.22-22.243Z" transform="translate(-286.986 -231.974)" fill="#fff"/>
    <path id="Caminho_14483" data-name="Caminho 14483" d="M271.225,22.838a13.991,13.991,0,0,1,11.66,11.66h22.838A36.738,36.738,0,0,0,271.225,0Z" transform="translate(-232.358 0)" fill="#fff"/>
  </g>
</svg>
